<svg xmlns="http://www.w3.org/2000/svg" width="2400" height="1000" viewBox="0 0 2400 1000" font-family="'Helvetica Neue','Segoe UI',Arial,sans-serif"><defs><linearGradient id="bg" x1="0" y1="0" x2="0" y2="1"><stop offset="0" stop-color="#0a1120"/><stop offset="1" stop-color="#0e1930"/></linearGradient><radialGradient id="glow" cx="0.5" cy="0.42" r="0.6"><stop offset="0" stop-color="#818cf8" stop-opacity="0.14"/><stop offset="1" stop-color="#818cf8" stop-opacity="0"/></radialGradient><marker id="arrow" viewBox="0 0 10 10" refX="8" refY="5" markerWidth="7.5" markerHeight="7.5" orient="auto-start-reverse"><path d="M0.5,0.5 L9,5 L0.5,9.5 z" fill="#38bdf8"/></marker><marker id="arrowR" viewBox="0 0 10 10" refX="8" refY="5" markerWidth="7.5" markerHeight="7.5" orient="auto-start-reverse"><path d="M0.5,0.5 L9,5 L0.5,9.5 z" fill="#fb7185"/></marker></defs><rect width="2400" height="1000" fill="url(#bg)"/><rect width="2400" height="1000" fill="url(#glow)"/><g transform="translate(70.0,52.0) scale(1.7500)" fill="none" stroke="#2dd4bf" stroke-width="2.3" stroke-linecap="round" stroke-linejoin="round"><path d="M22 12h-2.48a2 2 0 0 0-1.93 1.46l-2.35 8.36a.25.25 0 0 1-.48 0L9.24 2.18a.25.25 0 0 0-.48 0l-2.35 8.36A2 2 0 0 1 4.49 12H2" /></g><text x="126.0" y="92.0" font-family="'Helvetica Neue','Segoe UI',Arial,sans-serif" font-size="54" font-weight="800" fill="#eaf1ff" text-anchor="start">Outpost</text><text x="128.0" y="130.0" font-family="'Helvetica Neue','Segoe UI',Arial,sans-serif" font-size="20" font-weight="500" fill="#9fb2d0" text-anchor="start">Always-on clinical triage &amp; outbreak surveillance for disconnected field hospitals — nothing leaves the box.</text><rect x="2020.0" y="52.0" width="340.0" height="46.0" rx="12.0" fill="#0f1c34" stroke="#27375a" stroke-width="1.2"/><g transform="translate(2036.0,64.0) scale(0.9167)"><path fill="#3aa0dd" d="M17.963 14.6V9.324h1.222v4.204h2.14v1.07h-3.362zm-9.784-3.288l2.98-2.292c.281.228.56.458.841.687l-2.827 2.14.611.535 2.827-2.216c.281.228.56.458.841.688a295.83 295.83 0 0 1-2.827 2.216l.61.536 2.83-2.295-.001-1.986h1.223v4.204h2.216v1.07h-3.362v-1.987c-.995.763-1.987 1.529-2.981 2.292l-2.981-2.292c-.144.729-.653 1.36-1.312 1.694-.285.147-.597.24-.915.276-.183.022-.367.017-.551.017H3.516V9.325H5.69a2.544 2.544 0 0 1 1.563.557c.454.36.778.872.927 1.43m-3.516-.917v3.21l.953-.001a1.377 1.377 0 0 0 1.036-.523 1.74 1.74 0 0 0 .182-1.889 1.494 1.494 0 0 0-.976-.766c-.166-.04-.338-.03-.507-.032h-.688zM11.82 0h.337a11.94 11.94 0 0 1 5.405 1.373 12.101 12.101 0 0 1 4.126 3.557A11.93 11.93 0 0 1 24 11.82v.36a11.963 11.963 0 0 1-3.236 8.033A11.967 11.967 0 0 1 12.182 24h-.361a11.993 11.993 0 0 1-4.145-.806 12.04 12.04 0 0 1-4.274-2.836A12.057 12.057 0 0 1 .576 15.67 12.006 12.006 0 0 1 0 12.181v-.361a11.924 11.924 0 0 1 1.992-6.396 12.211 12.211 0 0 1 4.71-4.172A11.875 11.875 0 0 1 11.82 0m-.153 1.23a10.724 10.724 0 0 0-6.43 2.375 10.78 10.78 0 0 0-3.319 4.573 10.858 10.858 0 0 0 .193 8.12 10.788 10.788 0 0 0 3.546 4.421 10.698 10.698 0 0 0 4.786 1.946c1.456.209 2.955.124 4.376-.26a10.756 10.756 0 0 0 5.075-3.062 10.742 10.742 0 0 0 2.686-5.28 10.915 10.915 0 0 0-.122-4.682 10.77 10.77 0 0 0-7.098-7.626 10.78 10.78 0 0 0-3.693-.525z"/></g><text x="2070.0" y="82.0" font-family="'Helvetica Neue','Segoe UI',Arial,sans-serif" font-size="16" font-weight="600" fill="#cad7ef" text-anchor="start">Dell Pro Max · GB10</text><rect x="2020.0" y="108.0" width="340.0" height="46.0" rx="12.0" fill="#0f1c34" stroke="#27375a" stroke-width="1.2"/><g transform="translate(2036.0,120.0) scale(0.9167)"><path fill="#eaf1ff" d="M16.361 10.26a.894.894 0 0 0-.558.47l-.072.148.001.207c0 .193.004.217.059.353.076.193.152.312.291.448.24.238.51.3.872.205a.86.86 0 0 0 .517-.436.752.752 0 0 0 .08-.498c-.064-.453-.33-.782-.724-.897a1.06 1.06 0 0 0-.466 0zm-9.203.005c-.305.096-.533.32-.65.639a1.187 1.187 0 0 0-.06.52c.057.309.31.59.598.667.362.095.632.033.872-.205.14-.136.215-.255.291-.448.055-.136.059-.16.059-.353l.001-.207-.072-.148a.894.894 0 0 0-.565-.472 1.02 1.02 0 0 0-.474.007Zm4.184 2c-.131.071-.223.25-.195.383.031.143.157.288.353.407.105.063.112.072.117.136.004.038-.01.146-.029.243-.02.094-.036.194-.036.222.002.074.07.195.143.253.064.052.076.054.255.059.164.005.198.001.264-.03.169-.082.212-.234.15-.525-.052-.243-.042-.28.087-.355.137-.08.281-.219.324-.314a.365.365 0 0 0-.175-.48.394.394 0 0 0-.181-.033c-.126 0-.207.03-.355.124l-.085.053-.053-.032c-.219-.13-.259-.145-.391-.143a.396.396 0 0 0-.193.032zm.39-2.195c-.373.036-.475.05-.654.086-.291.06-.68.195-.951.328-.94.46-1.589 1.226-1.787 2.114-.04.176-.045.234-.045.53 0 .294.005.357.043.524.264 1.16 1.332 2.017 2.714 2.173.3.033 1.596.033 1.896 0 1.11-.125 2.064-.727 2.493-1.571.114-.226.169-.372.22-.602.039-.167.044-.23.044-.523 0-.297-.005-.355-.045-.531-.288-1.29-1.539-2.304-3.072-2.497a6.873 6.873 0 0 0-.855-.031zm.645.937a3.283 3.283 0 0 1 1.44.514c.223.148.537.458.671.662.166.251.26.508.303.82.02.143.01.251-.043.482-.08.345-.332.705-.672.957a3.115 3.115 0 0 1-.689.348c-.382.122-.632.144-1.525.138-.582-.006-.686-.01-.853-.042-.57-.107-1.022-.334-1.35-.68-.264-.28-.385-.535-.45-.946-.03-.192.025-.509.137-.776.136-.326.488-.73.836-.963.403-.269.934-.46 1.422-.512.187-.02.586-.02.773-.002zm-5.503-11a1.653 1.653 0 0 0-.683.298C5.617.74 5.173 1.666 4.985 2.819c-.07.436-.119 1.04-.119 1.503 0 .544.064 1.24.155 1.721.02.107.031.202.023.208a8.12 8.12 0 0 1-.187.152 5.324 5.324 0 0 0-.949 1.02 5.49 5.49 0 0 0-.94 2.339 6.625 6.625 0 0 0-.023 1.357c.091.78.325 1.438.727 2.04l.13.195-.037.064c-.269.452-.498 1.105-.605 1.732-.084.496-.095.629-.095 1.294 0 .67.009.803.088 1.266.095.555.288 1.143.503 1.534.071.128.243.393.264.407.007.003-.014.067-.046.141a7.405 7.405 0 0 0-.548 1.873c-.062.417-.071.552-.071.991 0 .56.031.832.148 1.279L3.42 24h1.478l-.05-.091c-.297-.552-.325-1.575-.068-2.597.117-.472.25-.819.498-1.296l.148-.29v-.177c0-.165-.003-.184-.057-.293a.915.915 0 0 0-.194-.25 1.74 1.74 0 0 1-.385-.543c-.424-.92-.506-2.286-.208-3.451.124-.486.329-.918.544-1.154a.787.787 0 0 0 .223-.531c0-.195-.07-.355-.224-.522a3.136 3.136 0 0 1-.817-1.729c-.14-.96.114-2.005.69-2.834.563-.814 1.353-1.336 2.237-1.475.199-.033.57-.028.776.01.226.04.367.028.512-.041.179-.085.268-.19.374-.431.093-.215.165-.333.36-.576.234-.29.46-.489.822-.729.413-.27.884-.467 1.352-.561.17-.035.25-.04.569-.04.319 0 .398.005.569.04a4.07 4.07 0 0 1 1.914.997c.117.109.398.457.488.602.034.057.095.177.132.267.105.241.195.346.374.43.14.068.286.082.503.045.343-.058.607-.053.943.016 1.144.23 2.14 1.173 2.581 2.437.385 1.108.276 2.267-.296 3.153-.097.15-.193.27-.333.419-.301.322-.301.722-.001 1.053.493.539.801 1.866.708 3.036-.062.772-.26 1.463-.533 1.854a2.096 2.096 0 0 1-.224.258.916.916 0 0 0-.194.25c-.054.109-.057.128-.057.293v.178l.148.29c.248.476.38.823.498 1.295.253 1.008.231 2.01-.059 2.581a.845.845 0 0 0-.044.098c0 .006.329.009.732.009h.73l.02-.074.036-.134c.019-.076.057-.3.088-.516.029-.217.029-1.016 0-1.258-.11-.875-.295-1.57-.597-2.226-.032-.074-.053-.138-.046-.141.008-.005.057-.074.108-.152.376-.569.607-1.284.724-2.228.031-.26.031-1.378 0-1.628-.083-.645-.182-1.082-.348-1.525a6.083 6.083 0 0 0-.329-.7l-.038-.064.131-.194c.402-.604.636-1.262.727-2.04a6.625 6.625 0 0 0-.024-1.358 5.512 5.512 0 0 0-.939-2.339 5.325 5.325 0 0 0-.95-1.02 8.097 8.097 0 0 1-.186-.152.692.692 0 0 1 .023-.208c.208-1.087.201-2.443-.017-3.503-.19-.924-.535-1.658-.98-2.082-.354-.338-.716-.482-1.15-.455-.996.059-1.8 1.205-2.116 3.01a6.805 6.805 0 0 0-.097.726c0 .036-.007.066-.015.066a.96.96 0 0 1-.149-.078A4.857 4.857 0 0 0 12 3.03c-.832 0-1.687.243-2.456.698a.958.958 0 0 1-.148.078c-.008 0-.015-.03-.015-.066a6.71 6.71 0 0 0-.097-.725C8.997 1.392 8.337.319 7.46.048a2.096 2.096 0 0 0-.585-.041Zm.293 1.402c.248.197.523.759.682 1.388.03.113.06.244.069.292.007.047.026.152.041.233.067.365.098.76.102 1.24l.002.475-.12.175-.118.178h-.278c-.324 0-.646.041-.954.124l-.238.06c-.033.007-.038-.003-.057-.144a8.438 8.438 0 0 1 .016-2.323c.124-.788.413-1.501.696-1.711.067-.05.079-.049.157.013zm9.825-.012c.17.126.358.46.498.888.28.854.36 2.028.212 3.145-.019.14-.024.151-.057.144l-.238-.06a3.693 3.693 0 0 0-.954-.124h-.278l-.119-.178-.119-.175.002-.474c.004-.669.066-1.19.214-1.772.157-.623.434-1.185.68-1.382.078-.062.09-.063.159-.012z"/></g><text x="2070.0" y="138.0" font-family="'Helvetica Neue','Segoe UI',Arial,sans-serif" font-size="16" font-weight="600" fill="#cad7ef" text-anchor="start">Ollama · 4 models resident</text><rect x="44.0" y="196.0" width="1996.0" height="560.0" rx="28.0" fill="#38bdf8" opacity="0.03"/><rect x="44.0" y="196.0" width="1996.0" height="560.0" rx="28.0" fill="none" stroke="#38bdf8" stroke-width="2.0" stroke-dasharray="2 11"/><rect x="74.0" y="176.0" width="560.0" height="40.0" rx="20.0" fill="#0b2036" stroke="#38bdf8" stroke-width="1.4"/><g transform="translate(92.0,185.0) scale(0.9167)" fill="none" stroke="#38bdf8" stroke-width="2.0" stroke-linecap="round" stroke-linejoin="round"><rect width="18" height="11" x="3" y="11" rx="2" ry="2" />
  <path d="M7 11V7a5 5 0 0 1 10 0v4" /></g><text x="124.0" y="202.0" font-family="'Helvetica Neue','Segoe UI',Arial,sans-serif" font-size="16" font-weight="700" fill="#bfe6ff" text-anchor="start" letter-spacing="0.4">THE BOX · fully on-prem · no remote inference</text><text x="244.0" y="310.0" font-family="'Helvetica Neue','Segoe UI',Arial,sans-serif" font-size="15" font-weight="700" fill="#2dd4bf" text-anchor="middle" letter-spacing="2.5">DROP</text><text x="642.0" y="310.0" font-family="'Helvetica Neue','Segoe UI',Arial,sans-serif" font-size="15" font-weight="700" fill="#a78bfa" text-anchor="middle" letter-spacing="2.5">UNDERSTAND</text><text x="1040.0" y="310.0" font-family="'Helvetica Neue','Segoe UI',Arial,sans-serif" font-size="15" font-weight="700" fill="#38bdf8" text-anchor="middle" letter-spacing="2.5">REMEMBER</text><text x="1438.0" y="310.0" font-family="'Helvetica Neue','Segoe UI',Arial,sans-serif" font-size="15" font-weight="700" fill="#818cf8" text-anchor="middle" letter-spacing="2.5">REASON</text><text x="1836.0" y="310.0" font-family="'Helvetica Neue','Segoe UI',Arial,sans-serif" font-size="15" font-weight="700" fill="#f5a623" text-anchor="middle" letter-spacing="2.5">APPROVE</text><rect x="83.0" y="338.0" width="328.0" height="272.0" rx="20.0" fill="#00030a" opacity="0.4"/><rect x="80.0" y="330.0" width="328.0" height="272.0" rx="20.0" fill="#132039" stroke="#27375a" stroke-width="1.4"/><rect x="80.0" y="330.0" width="328.0" height="6.0" rx="20.0" fill="#2dd4bf"/><g transform="translate(106.0,356.0) scale(1.6667)" fill="none" stroke="#2dd4bf" stroke-width="2.0" stroke-linecap="round" stroke-linejoin="round"><path d="M10.7 20H4a2 2 0 0 1-2-2V5a2 2 0 0 1 2-2h3.9a2 2 0 0 1 1.69.9l.81 1.2a2 2 0 0 0 1.67.9H20a2 2 0 0 1 2 2v4.1" />
  <path d="m21 21-1.9-1.9" />
  <circle cx="17" cy="17" r="3" /></g><text x="162.0" y="382.0" font-family="'Helvetica Neue','Segoe UI',Arial,sans-serif" font-size="23" font-weight="700" fill="#eaf1ff" text-anchor="start">Ingest</text><text x="162.0" y="406.0" font-family="'SF Mono','Menlo','DejaVu Sans Mono',monospace" font-size="14" font-weight="700" fill="#2dd4bf" text-anchor="start">F-01</text><text x="110.0" y="446.0" font-family="'Helvetica Neue','Segoe UI',Arial,sans-serif" font-size="16" font-weight="500" fill="#cfe9e2" text-anchor="start">clinician → /data/inbox</text><text x="110.0" y="482.0" font-family="'Helvetica Neue','Segoe UI',Arial,sans-serif" font-size="16" font-weight="500" fill="#9fb2d0" text-anchor="start">audio · image · note</text><text x="110.0" y="518.0" font-family="'Helvetica Neue','Segoe UI',Arial,sans-serif" font-size="16" font-weight="500" fill="#9fb2d0" text-anchor="start">Watcher · inotify</text><text x="110.0" y="554.0" font-family="'Helvetica Neue','Segoe UI',Arial,sans-serif" font-size="16" font-weight="500" fill="#9fb2d0" text-anchor="start">SHA-256 dedupe · ≤ 2s</text><rect x="481.0" y="338.0" width="328.0" height="272.0" rx="20.0" fill="#00030a" opacity="0.4"/><rect x="478.0" y="330.0" width="328.0" height="272.0" rx="20.0" fill="#132039" stroke="#27375a" stroke-width="1.4"/><rect x="478.0" y="330.0" width="328.0" height="6.0" rx="20.0" fill="#a78bfa"/><g transform="translate(504.0,356.0) scale(1.6667)" fill="none" stroke="#a78bfa" stroke-width="2.0" stroke-linecap="round" stroke-linejoin="round"><path d="M22 12h-2.48a2 2 0 0 0-1.93 1.46l-2.35 8.36a.25.25 0 0 1-.48 0L9.24 2.18a.25.25 0 0 0-.48 0l-2.35 8.36A2 2 0 0 1 4.49 12H2" /></g><text x="560.0" y="382.0" font-family="'Helvetica Neue','Segoe UI',Arial,sans-serif" font-size="23" font-weight="700" fill="#eaf1ff" text-anchor="start">Local AI models</text><g transform="translate(760.0,354.0) scale(0.9167)"><path fill="#9fb2d0" d="M16.361 10.26a.894.894 0 0 0-.558.47l-.072.148.001.207c0 .193.004.217.059.353.076.193.152.312.291.448.24.238.51.3.872.205a.86.86 0 0 0 .517-.436.752.752 0 0 0 .08-.498c-.064-.453-.33-.782-.724-.897a1.06 1.06 0 0 0-.466 0zm-9.203.005c-.305.096-.533.32-.65.639a1.187 1.187 0 0 0-.06.52c.057.309.31.59.598.667.362.095.632.033.872-.205.14-.136.215-.255.291-.448.055-.136.059-.16.059-.353l.001-.207-.072-.148a.894.894 0 0 0-.565-.472 1.02 1.02 0 0 0-.474.007Zm4.184 2c-.131.071-.223.25-.195.383.031.143.157.288.353.407.105.063.112.072.117.136.004.038-.01.146-.029.243-.02.094-.036.194-.036.222.002.074.07.195.143.253.064.052.076.054.255.059.164.005.198.001.264-.03.169-.082.212-.234.15-.525-.052-.243-.042-.28.087-.355.137-.08.281-.219.324-.314a.365.365 0 0 0-.175-.48.394.394 0 0 0-.181-.033c-.126 0-.207.03-.355.124l-.085.053-.053-.032c-.219-.13-.259-.145-.391-.143a.396.396 0 0 0-.193.032zm.39-2.195c-.373.036-.475.05-.654.086-.291.06-.68.195-.951.328-.94.46-1.589 1.226-1.787 2.114-.04.176-.045.234-.045.53 0 .294.005.357.043.524.264 1.16 1.332 2.017 2.714 2.173.3.033 1.596.033 1.896 0 1.11-.125 2.064-.727 2.493-1.571.114-.226.169-.372.22-.602.039-.167.044-.23.044-.523 0-.297-.005-.355-.045-.531-.288-1.29-1.539-2.304-3.072-2.497a6.873 6.873 0 0 0-.855-.031zm.645.937a3.283 3.283 0 0 1 1.44.514c.223.148.537.458.671.662.166.251.26.508.303.82.02.143.01.251-.043.482-.08.345-.332.705-.672.957a3.115 3.115 0 0 1-.689.348c-.382.122-.632.144-1.525.138-.582-.006-.686-.01-.853-.042-.57-.107-1.022-.334-1.35-.68-.264-.28-.385-.535-.45-.946-.03-.192.025-.509.137-.776.136-.326.488-.73.836-.963.403-.269.934-.46 1.422-.512.187-.02.586-.02.773-.002zm-5.503-11a1.653 1.653 0 0 0-.683.298C5.617.74 5.173 1.666 4.985 2.819c-.07.436-.119 1.04-.119 1.503 0 .544.064 1.24.155 1.721.02.107.031.202.023.208a8.12 8.12 0 0 1-.187.152 5.324 5.324 0 0 0-.949 1.02 5.49 5.49 0 0 0-.94 2.339 6.625 6.625 0 0 0-.023 1.357c.091.78.325 1.438.727 2.04l.13.195-.037.064c-.269.452-.498 1.105-.605 1.732-.084.496-.095.629-.095 1.294 0 .67.009.803.088 1.266.095.555.288 1.143.503 1.534.071.128.243.393.264.407.007.003-.014.067-.046.141a7.405 7.405 0 0 0-.548 1.873c-.062.417-.071.552-.071.991 0 .56.031.832.148 1.279L3.42 24h1.478l-.05-.091c-.297-.552-.325-1.575-.068-2.597.117-.472.25-.819.498-1.296l.148-.29v-.177c0-.165-.003-.184-.057-.293a.915.915 0 0 0-.194-.25 1.74 1.74 0 0 1-.385-.543c-.424-.92-.506-2.286-.208-3.451.124-.486.329-.918.544-1.154a.787.787 0 0 0 .223-.531c0-.195-.07-.355-.224-.522a3.136 3.136 0 0 1-.817-1.729c-.14-.96.114-2.005.69-2.834.563-.814 1.353-1.336 2.237-1.475.199-.033.57-.028.776.01.226.04.367.028.512-.041.179-.085.268-.19.374-.431.093-.215.165-.333.36-.576.234-.29.46-.489.822-.729.413-.27.884-.467 1.352-.561.17-.035.25-.04.569-.04.319 0 .398.005.569.04a4.07 4.07 0 0 1 1.914.997c.117.109.398.457.488.602.034.057.095.177.132.267.105.241.195.346.374.43.14.068.286.082.503.045.343-.058.607-.053.943.016 1.144.23 2.14 1.173 2.581 2.437.385 1.108.276 2.267-.296 3.153-.097.15-.193.27-.333.419-.301.322-.301.722-.001 1.053.493.539.801 1.866.708 3.036-.062.772-.26 1.463-.533 1.854a2.096 2.096 0 0 1-.224.258.916.916 0 0 0-.194.25c-.054.109-.057.128-.057.293v.178l.148.29c.248.476.38.823.498 1.295.253 1.008.231 2.01-.059 2.581a.845.845 0 0 0-.044.098c0 .006.329.009.732.009h.73l.02-.074.036-.134c.019-.076.057-.3.088-.516.029-.217.029-1.016 0-1.258-.11-.875-.295-1.57-.597-2.226-.032-.074-.053-.138-.046-.141.008-.005.057-.074.108-.152.376-.569.607-1.284.724-2.228.031-.26.031-1.378 0-1.628-.083-.645-.182-1.082-.348-1.525a6.083 6.083 0 0 0-.329-.7l-.038-.064.131-.194c.402-.604.636-1.262.727-2.04a6.625 6.625 0 0 0-.024-1.358 5.512 5.512 0 0 0-.939-2.339 5.325 5.325 0 0 0-.95-1.02 8.097 8.097 0 0 1-.186-.152.692.692 0 0 1 .023-.208c.208-1.087.201-2.443-.017-3.503-.19-.924-.535-1.658-.98-2.082-.354-.338-.716-.482-1.15-.455-.996.059-1.8 1.205-2.116 3.01a6.805 6.805 0 0 0-.097.726c0 .036-.007.066-.015.066a.96.96 0 0 1-.149-.078A4.857 4.857 0 0 0 12 3.03c-.832 0-1.687.243-2.456.698a.958.958 0 0 1-.148.078c-.008 0-.015-.03-.015-.066a6.71 6.71 0 0 0-.097-.725C8.997 1.392 8.337.319 7.46.048a2.096 2.096 0 0 0-.585-.041Zm.293 1.402c.248.197.523.759.682 1.388.03.113.06.244.069.292.007.047.026.152.041.233.067.365.098.76.102 1.24l.002.475-.12.175-.118.178h-.278c-.324 0-.646.041-.954.124l-.238.06c-.033.007-.038-.003-.057-.144a8.438 8.438 0 0 1 .016-2.323c.124-.788.413-1.501.696-1.711.067-.05.079-.049.157.013zm9.825-.012c.17.126.358.46.498.888.28.854.36 2.028.212 3.145-.019.14-.024.151-.057.144l-.238-.06a3.693 3.693 0 0 0-.954-.124h-.278l-.119-.178-.119-.175.002-.474c.004-.669.066-1.19.214-1.772.157-.623.434-1.185.68-1.382.078-.062.09-.063.159-.012z"/></g><rect x="502.0" y="420.0" width="280.0" height="48.0" rx="12.0" fill="#0e1a33" stroke="#27375a" stroke-width="1.1"/><g transform="translate(516.0,433.0) scale(0.9167)" fill="none" stroke="#2dd4bf" stroke-width="2.0" stroke-linecap="round" stroke-linejoin="round"><path d="M12 19v3" />
  <path d="M19 10v2a7 7 0 0 1-14 0v-2" />
  <rect x="9" y="2" width="6" height="13" rx="3" /></g><text x="550.0" y="441.0" font-family="'Helvetica Neue','Segoe UI',Arial,sans-serif" font-size="15.5" font-weight="700" fill="#eaf1ff" text-anchor="start">Listen</text><text x="550.0" y="459.0" font-family="'Helvetica Neue','Segoe UI',Arial,sans-serif" font-size="13" font-weight="400" fill="#9fb2d0" text-anchor="start">Whisper large-v3</text><rect x="502.0" y="476.0" width="280.0" height="48.0" rx="12.0" fill="#0e1a33" stroke="#27375a" stroke-width="1.1"/><g transform="translate(516.0,489.0) scale(0.9167)" fill="none" stroke="#a78bfa" stroke-width="2.0" stroke-linecap="round" stroke-linejoin="round"><path d="M2.062 12.348a1 1 0 0 1 0-.696 10.75 10.75 0 0 1 19.876 0 1 1 0 0 1 0 .696 10.75 10.75 0 0 1-19.876 0" />
  <circle cx="12" cy="12" r="3" /></g><text x="550.0" y="497.0" font-family="'Helvetica Neue','Segoe UI',Arial,sans-serif" font-size="15.5" font-weight="700" fill="#eaf1ff" text-anchor="start">Look</text><text x="550.0" y="515.0" font-family="'Helvetica Neue','Segoe UI',Arial,sans-serif" font-size="13" font-weight="400" fill="#9fb2d0" text-anchor="start">MedGemma 4B</text><rect x="502.0" y="532.0" width="280.0" height="48.0" rx="12.0" fill="#0e1a33" stroke="#27375a" stroke-width="1.1"/><g transform="translate(516.0,545.0) scale(0.9167)" fill="none" stroke="#818cf8" stroke-width="2.0" stroke-linecap="round" stroke-linejoin="round"><rect width="7" height="7" x="3" y="3" rx="1" />
  <rect width="7" height="7" x="3" y="14" rx="1" />
  <path d="M14 4h7" />
  <path d="M14 9h7" />
  <path d="M14 15h7" />
  <path d="M14 20h7" /></g><text x="550.0" y="553.0" font-family="'Helvetica Neue','Segoe UI',Arial,sans-serif" font-size="15.5" font-weight="700" fill="#eaf1ff" text-anchor="start">Structure</text><text x="550.0" y="571.0" font-family="'Helvetica Neue','Segoe UI',Arial,sans-serif" font-size="13" font-weight="400" fill="#9fb2d0" text-anchor="start">embeddinggemma</text><rect x="879.0" y="338.0" width="328.0" height="272.0" rx="20.0" fill="#00030a" opacity="0.4"/><rect x="876.0" y="330.0" width="328.0" height="272.0" rx="20.0" fill="#132039" stroke="#27375a" stroke-width="1.4"/><rect x="876.0" y="330.0" width="328.0" height="6.0" rx="20.0" fill="#38bdf8"/><g transform="translate(902.0,352.0) scale(1.6667)"><path fill="#38bdf8" d="M21.678.521c-1.032-.92-2.28-.55-3.513.544a8.71 8.71 0 0 0-.547.535c-2.109 2.237-4.066 6.38-4.674 9.544.237.48.422 1.093.544 1.561a13.044 13.044 0 0 1 .164.703s-.019-.071-.096-.296l-.05-.146a1.689 1.689 0 0 0-.033-.08c-.138-.32-.518-.995-.686-1.289-.143.423-.27.818-.376 1.176.484.884.778 2.4.778 2.4s-.025-.099-.147-.442c-.107-.303-.644-1.244-.772-1.464-.217.804-.304 1.346-.226 1.478.152.256.296.698.422 1.186.286 1.1.485 2.44.485 2.44l.017.224a22.41 22.41 0 0 0 .056 2.748c.095 1.146.273 2.13.5 2.657l.155-.084c-.334-1.038-.47-2.399-.41-3.967.09-2.398.642-5.29 1.661-8.304 1.723-4.55 4.113-8.201 6.3-9.945-1.993 1.8-4.692 7.63-5.5 9.788-.904 2.416-1.545 4.684-1.931 6.857.666-2.037 2.821-2.912 2.821-2.912s1.057-1.304 2.292-3.166c-.74.169-1.955.458-2.362.629-.6.251-.762.337-.762.337s1.945-1.184 3.613-1.72C21.695 7.9 24.195 2.767 21.678.521m-18.573.543A1.842 1.842 0 0 0 1.27 2.9v16.608a1.84 1.84 0 0 0 1.835 1.834h9.418a22.953 22.953 0 0 1-.052-2.707c-.006-.062-.011-.141-.016-.2a27.01 27.01 0 0 0-.473-2.378c-.121-.47-.275-.898-.369-1.057-.116-.197-.098-.31-.097-.432 0-.12.015-.245.037-.386a9.98 9.98 0 0 1 .234-1.045l.217-.028c-.017-.035-.014-.065-.031-.097l-.041-.381a32.8 32.8 0 0 1 .382-1.194l.2-.019c-.008-.016-.01-.038-.018-.053l-.043-.316c.63-3.28 2.587-7.443 4.8-9.791.066-.069.133-.128.198-.194Z"/></g><text x="958.0" y="382.0" font-family="'Helvetica Neue','Segoe UI',Arial,sans-serif" font-size="23" font-weight="700" fill="#eaf1ff" text-anchor="start">SQLite</text><text x="958.0" y="406.0" font-family="'SF Mono','Menlo','DejaVu Sans Mono',monospace" font-size="14" font-weight="700" fill="#38bdf8" text-anchor="start">F-05</text><text x="906.0" y="446.0" font-family="'Helvetica Neue','Segoe UI',Arial,sans-serif" font-size="16" font-weight="500" fill="#cfe6f7" text-anchor="start">patient graph</text><text x="906.0" y="482.0" font-family="'Helvetica Neue','Segoe UI',Arial,sans-serif" font-size="16" font-weight="500" fill="#9fb2d0" text-anchor="start">nodes · edges</text><text x="906.0" y="518.0" font-family="'Helvetica Neue','Segoe UI',Arial,sans-serif" font-size="16" font-weight="500" fill="#9fb2d0" text-anchor="start">surveillance cases</text><text x="906.0" y="554.0" font-family="'Helvetica Neue','Segoe UI',Arial,sans-serif" font-size="16" font-weight="500" fill="#9fb2d0" text-anchor="start">durable · WAL · on disk</text><rect x="1277.0" y="338.0" width="328.0" height="272.0" rx="20.0" fill="#00030a" opacity="0.4"/><rect x="1274.0" y="330.0" width="328.0" height="272.0" rx="20.0" fill="#132039" stroke="#27375a" stroke-width="1.4"/><rect x="1274.0" y="330.0" width="328.0" height="6.0" rx="20.0" fill="#818cf8"/><g transform="translate(1300.0,356.0) scale(1.6667)" fill="none" stroke="#818cf8" stroke-width="2.2" stroke-linecap="round" stroke-linejoin="round"><path d="M22 12h-2.48a2 2 0 0 0-1.93 1.46l-2.35 8.36a.25.25 0 0 1-.48 0L9.24 2.18a.25.25 0 0 0-.48 0l-2.35 8.36A2 2 0 0 1 4.49 12H2" /></g><text x="1356.0" y="382.0" font-family="'Helvetica Neue','Segoe UI',Arial,sans-serif" font-size="23" font-weight="700" fill="#eaf1ff" text-anchor="start">Agent</text><text x="1356.0" y="406.0" font-family="'SF Mono','Menlo','DejaVu Sans Mono',monospace" font-size="14" font-weight="700" fill="#818cf8" text-anchor="start">F-06 · F-07</text><text x="1304.0" y="446.0" font-family="'Helvetica Neue','Segoe UI',Arial,sans-serif" font-size="16" font-weight="500" fill="#d4d9fb" text-anchor="start">heartbeat · every 30s</text><text x="1304.0" y="482.0" font-family="'Helvetica Neue','Segoe UI',Arial,sans-serif" font-size="16" font-weight="500" fill="#9fb2d0" text-anchor="start">cluster ≥ 3 · same catchment</text><text x="1304.0" y="518.0" font-family="'Helvetica Neue','Segoe UI',Arial,sans-serif" font-size="16" font-weight="500" fill="#9fb2d0" text-anchor="start">rolling 72h window</text><text x="1304.0" y="554.0" font-family="'Helvetica Neue','Segoe UI',Arial,sans-serif" font-size="16" font-weight="500" fill="#9fb2d0" text-anchor="start">drafts alert + rationale</text><g transform="translate(1558.0,354.0) scale(0.9167)"><path fill="#a78bfa" d="M11.04 19.32Q12 21.51 12 24q0-2.49.93-4.68.96-2.19 2.58-3.81t3.81-2.55Q21.51 12 24 12q-2.49 0-4.68-.93a12.3 12.3 0 0 1-3.81-2.58 12.3 12.3 0 0 1-2.58-3.81Q12 2.49 12 0q0 2.49-.96 4.68-.93 2.19-2.55 3.81a12.3 12.3 0 0 1-3.81 2.58Q2.49 12 0 12q2.49 0 4.68.96 2.19.93 3.81 2.55t2.55 3.81"/></g><rect x="1675.0" y="338.0" width="328.0" height="272.0" rx="20.0" fill="#00030a" opacity="0.4"/><rect x="1672.0" y="330.0" width="328.0" height="272.0" rx="20.0" fill="#132039" stroke="#27375a" stroke-width="1.4"/><rect x="1672.0" y="330.0" width="328.0" height="6.0" rx="20.0" fill="#f5a623"/><g transform="translate(1698.0,354.0) scale(1.6667)" fill="none" stroke="#f5a623" stroke-width="2.1" stroke-linecap="round" stroke-linejoin="round"><path d="M20 13c0 5-3.5 7.5-7.66 8.95a1 1 0 0 1-.67-.01C7.5 20.5 4 18 4 13V6a1 1 0 0 1 1-1c2 0 4.5-1.2 6.24-2.72a1.17 1.17 0 0 1 1.52 0C14.51 3.81 17 5 19 5a1 1 0 0 1 1 1z" />
  <path d="m9 12 2 2 4-4" /></g><text x="1754.0" y="382.0" font-family="'Helvetica Neue','Segoe UI',Arial,sans-serif" font-size="23" font-weight="700" fill="#eaf1ff" text-anchor="start">Human gate</text><text x="1754.0" y="406.0" font-family="'SF Mono','Menlo','DejaVu Sans Mono',monospace" font-size="14" font-weight="700" fill="#f5a623" text-anchor="start">F-09 · F-10</text><text x="1702.0" y="446.0" font-family="'Helvetica Neue','Segoe UI',Arial,sans-serif" font-size="16" font-weight="500" fill="#f4ddb4" text-anchor="start">Approve / Dismiss</text><rect x="1696.0" y="472.0" width="280.0" height="58.0" rx="12.0" fill="#0e1a33" stroke="#27375a" stroke-width="1.1"/><text x="1836.0" y="498.0" font-family="'Helvetica Neue','Segoe UI',Arial,sans-serif" font-size="14" font-weight="600" fill="#f4ddb4" text-anchor="middle">nothing leaves without approval</text><text x="1836.0" y="518.0" font-family="'SF Mono','Menlo','DejaVu Sans Mono',monospace" font-size="15" font-weight="700" fill="#34d399" text-anchor="middle">→ 124 B · counts only</text><line x1="408.0" y1="466.0" x2="478.0" y2="466.0" stroke="#38bdf8" stroke-width="3.2" stroke-linecap="round" marker-end="url(#arrow)"/><line x1="806.0" y1="466.0" x2="876.0" y2="466.0" stroke="#38bdf8" stroke-width="3.2" stroke-linecap="round" marker-end="url(#arrow)"/><line x1="1204.0" y1="466.0" x2="1274.0" y2="466.0" stroke="#38bdf8" stroke-width="3.2" stroke-linecap="round" marker-end="url(#arrow)"/><line x1="1602.0" y1="466.0" x2="1672.0" y2="466.0" stroke="#38bdf8" stroke-width="3.2" stroke-linecap="round" marker-end="url(#arrow)"/><line x1="2000.0" y1="466.0" x2="2082.0" y2="466.0" stroke="#fb7185" stroke-width="4.0" stroke-linecap="round" marker-end="url(#arrowR)"/><rect x="1982.0" y="420.0" width="128.0" height="30.0" rx="15.0" fill="#2a0d16" stroke="#fb7185" stroke-width="1.2"/><g transform="translate(1994.0,426.0) scale(0.7500)" fill="none" stroke="#fb7185" stroke-width="2.0" stroke-linecap="round" stroke-linejoin="round"><rect width="18" height="11" x="3" y="11" rx="2" ry="2" />
  <path d="M7 11V7a5 5 0 0 1 10 0v4" /></g><text x="2048.0" y="440.0" font-family="'Helvetica Neue','Segoe UI',Arial,sans-serif" font-size="14" font-weight="700" fill="#ffd7dd" text-anchor="middle">124 B</text><text x="2088.0" y="332.0" font-family="'Helvetica Neue','Segoe UI',Arial,sans-serif" font-size="13" font-weight="700" fill="#64769a" text-anchor="start" letter-spacing="2">OUTSIDE THE BOX</text><rect x="2091.0" y="360.0" width="272.0" height="228.0" rx="20.0" fill="#00030a" opacity="0.4"/><rect x="2088.0" y="352.0" width="272.0" height="228.0" rx="20.0" fill="#122019" stroke="#34d399" stroke-width="1.6"/><rect x="2088.0" y="352.0" width="272.0" height="6.0" rx="20.0" fill="#34d399"/><g transform="translate(2114.0,378.0) scale(1.5833)" fill="none" stroke="#34d399" stroke-width="2.0" stroke-linecap="round" stroke-linejoin="round"><rect width="20" height="8" x="2" y="2" rx="2" ry="2" />
  <rect width="20" height="8" x="2" y="14" rx="2" ry="2" />
  <line x1="6" x2="6.01" y1="6" y2="6" />
  <line x1="6" x2="6.01" y1="18" y2="18" /></g><text x="2170.0" y="404.0" font-family="'Helvetica Neue','Segoe UI',Arial,sans-serif" font-size="22" font-weight="700" fill="#eaf1ff" text-anchor="start">Receiver</text><text x="2170.0" y="428.0" font-family="'SF Mono','Menlo','DejaVu Sans Mono',monospace" font-size="14" font-weight="600" fill="#34d399" text-anchor="start">off-box</text><g transform="translate(2116.0,464.0) scale(0.7500)" fill="none" stroke="#34d399" stroke-width="2.2" stroke-linecap="round" stroke-linejoin="round"><path d="M20 6 9 17l-5-5" /></g><text x="2144.0" y="478.0" font-family="'Helvetica Neue','Segoe UI',Arial,sans-serif" font-size="15" font-weight="400" fill="#c7e9d3" text-anchor="start">one allowlisted host</text><g transform="translate(2116.0,500.0) scale(0.7500)" fill="none" stroke="#34d399" stroke-width="2.2" stroke-linecap="round" stroke-linejoin="round"><path d="M20 6 9 17l-5-5" /></g><text x="2144.0" y="514.0" font-family="'SF Mono','Menlo','DejaVu Sans Mono',monospace" font-size="15" font-weight="400" fill="#c7e9d3" text-anchor="start">127.0.0.1:9000</text><g transform="translate(2116.0,536.0) scale(0.7500)" fill="none" stroke="#34d399" stroke-width="2.2" stroke-linecap="round" stroke-linejoin="round"><path d="M20 6 9 17l-5-5" /></g><text x="2144.0" y="550.0" font-family="'Helvetica Neue','Segoe UI',Arial,sans-serif" font-size="15" font-weight="400" fill="#c7e9d3" text-anchor="start">aggregate counts only</text><rect x="70.0" y="828.0" width="229.5" height="42.0" rx="21.0" fill="#0f1c34" stroke="#34d399" stroke-width="1.3"/><g transform="translate(84.0,839.0) scale(0.8333)" fill="none" stroke="#34d399" stroke-width="2.2" stroke-linecap="round" stroke-linejoin="round"><path d="M20 6 9 17l-5-5" /></g><text x="112.0" y="855.0" font-family="'Helvetica Neue','Segoe UI',Arial,sans-serif" font-size="16" font-weight="600" fill="#d4e2f5" text-anchor="start">No remote inference</text><rect x="315.5" y="828.0" width="261.0" height="42.0" rx="21.0" fill="#0f1c34" stroke="#34d399" stroke-width="1.3"/><g transform="translate(329.5,839.0) scale(0.8333)" fill="none" stroke="#34d399" stroke-width="2.2" stroke-linecap="round" stroke-linejoin="round"><path d="M20 6 9 17l-5-5" /></g><text x="357.5" y="855.0" font-family="'Helvetica Neue','Segoe UI',Arial,sans-serif" font-size="16" font-weight="600" fill="#d4e2f5" text-anchor="start">No patient data leaves</text><rect x="592.5" y="828.0" width="240.0" height="42.0" rx="21.0" fill="#0f1c34" stroke="#34d399" stroke-width="1.3"/><g transform="translate(606.5,839.0) scale(0.8333)" fill="none" stroke="#34d399" stroke-width="2.2" stroke-linecap="round" stroke-linejoin="round"><path d="M20 6 9 17l-5-5" /></g><text x="634.5" y="855.0" font-family="'Helvetica Neue','Segoe UI',Arial,sans-serif" font-size="16" font-weight="600" fill="#d4e2f5" text-anchor="start">Human gate on egress</text><rect x="848.5" y="828.0" width="261.0" height="42.0" rx="21.0" fill="#0f1c34" stroke="#34d399" stroke-width="1.3"/><g transform="translate(862.5,839.0) scale(0.8333)" fill="none" stroke="#34d399" stroke-width="2.2" stroke-linecap="round" stroke-linejoin="round"><path d="M20 6 9 17l-5-5" /></g><text x="890.5" y="855.0" font-family="'Helvetica Neue','Segoe UI',Arial,sans-serif" font-size="16" font-weight="600" fill="#d4e2f5" text-anchor="start">Triage, never diagnose</text><text x="2360.0" y="832.0" font-family="'Helvetica Neue','Segoe UI',Arial,sans-serif" font-size="14" font-weight="700" fill="#64769a" text-anchor="end" letter-spacing="0.6">Built with</text><g transform="translate(1830.0,844.0) scale(0.9167)"><path fill="#c7d4ec" d="M16.361 10.26a.894.894 0 0 0-.558.47l-.072.148.001.207c0 .193.004.217.059.353.076.193.152.312.291.448.24.238.51.3.872.205a.86.86 0 0 0 .517-.436.752.752 0 0 0 .08-.498c-.064-.453-.33-.782-.724-.897a1.06 1.06 0 0 0-.466 0zm-9.203.005c-.305.096-.533.32-.65.639a1.187 1.187 0 0 0-.06.52c.057.309.31.59.598.667.362.095.632.033.872-.205.14-.136.215-.255.291-.448.055-.136.059-.16.059-.353l.001-.207-.072-.148a.894.894 0 0 0-.565-.472 1.02 1.02 0 0 0-.474.007Zm4.184 2c-.131.071-.223.25-.195.383.031.143.157.288.353.407.105.063.112.072.117.136.004.038-.01.146-.029.243-.02.094-.036.194-.036.222.002.074.07.195.143.253.064.052.076.054.255.059.164.005.198.001.264-.03.169-.082.212-.234.15-.525-.052-.243-.042-.28.087-.355.137-.08.281-.219.324-.314a.365.365 0 0 0-.175-.48.394.394 0 0 0-.181-.033c-.126 0-.207.03-.355.124l-.085.053-.053-.032c-.219-.13-.259-.145-.391-.143a.396.396 0 0 0-.193.032zm.39-2.195c-.373.036-.475.05-.654.086-.291.06-.68.195-.951.328-.94.46-1.589 1.226-1.787 2.114-.04.176-.045.234-.045.53 0 .294.005.357.043.524.264 1.16 1.332 2.017 2.714 2.173.3.033 1.596.033 1.896 0 1.11-.125 2.064-.727 2.493-1.571.114-.226.169-.372.22-.602.039-.167.044-.23.044-.523 0-.297-.005-.355-.045-.531-.288-1.29-1.539-2.304-3.072-2.497a6.873 6.873 0 0 0-.855-.031zm.645.937a3.283 3.283 0 0 1 1.44.514c.223.148.537.458.671.662.166.251.26.508.303.82.02.143.01.251-.043.482-.08.345-.332.705-.672.957a3.115 3.115 0 0 1-.689.348c-.382.122-.632.144-1.525.138-.582-.006-.686-.01-.853-.042-.57-.107-1.022-.334-1.35-.68-.264-.28-.385-.535-.45-.946-.03-.192.025-.509.137-.776.136-.326.488-.73.836-.963.403-.269.934-.46 1.422-.512.187-.02.586-.02.773-.002zm-5.503-11a1.653 1.653 0 0 0-.683.298C5.617.74 5.173 1.666 4.985 2.819c-.07.436-.119 1.04-.119 1.503 0 .544.064 1.24.155 1.721.02.107.031.202.023.208a8.12 8.12 0 0 1-.187.152 5.324 5.324 0 0 0-.949 1.02 5.49 5.49 0 0 0-.94 2.339 6.625 6.625 0 0 0-.023 1.357c.091.78.325 1.438.727 2.04l.13.195-.037.064c-.269.452-.498 1.105-.605 1.732-.084.496-.095.629-.095 1.294 0 .67.009.803.088 1.266.095.555.288 1.143.503 1.534.071.128.243.393.264.407.007.003-.014.067-.046.141a7.405 7.405 0 0 0-.548 1.873c-.062.417-.071.552-.071.991 0 .56.031.832.148 1.279L3.42 24h1.478l-.05-.091c-.297-.552-.325-1.575-.068-2.597.117-.472.25-.819.498-1.296l.148-.29v-.177c0-.165-.003-.184-.057-.293a.915.915 0 0 0-.194-.25 1.74 1.74 0 0 1-.385-.543c-.424-.92-.506-2.286-.208-3.451.124-.486.329-.918.544-1.154a.787.787 0 0 0 .223-.531c0-.195-.07-.355-.224-.522a3.136 3.136 0 0 1-.817-1.729c-.14-.96.114-2.005.69-2.834.563-.814 1.353-1.336 2.237-1.475.199-.033.57-.028.776.01.226.04.367.028.512-.041.179-.085.268-.19.374-.431.093-.215.165-.333.36-.576.234-.29.46-.489.822-.729.413-.27.884-.467 1.352-.561.17-.035.25-.04.569-.04.319 0 .398.005.569.04a4.07 4.07 0 0 1 1.914.997c.117.109.398.457.488.602.034.057.095.177.132.267.105.241.195.346.374.43.14.068.286.082.503.045.343-.058.607-.053.943.016 1.144.23 2.14 1.173 2.581 2.437.385 1.108.276 2.267-.296 3.153-.097.15-.193.27-.333.419-.301.322-.301.722-.001 1.053.493.539.801 1.866.708 3.036-.062.772-.26 1.463-.533 1.854a2.096 2.096 0 0 1-.224.258.916.916 0 0 0-.194.25c-.054.109-.057.128-.057.293v.178l.148.29c.248.476.38.823.498 1.295.253 1.008.231 2.01-.059 2.581a.845.845 0 0 0-.044.098c0 .006.329.009.732.009h.73l.02-.074.036-.134c.019-.076.057-.3.088-.516.029-.217.029-1.016 0-1.258-.11-.875-.295-1.57-.597-2.226-.032-.074-.053-.138-.046-.141.008-.005.057-.074.108-.152.376-.569.607-1.284.724-2.228.031-.26.031-1.378 0-1.628-.083-.645-.182-1.082-.348-1.525a6.083 6.083 0 0 0-.329-.7l-.038-.064.131-.194c.402-.604.636-1.262.727-2.04a6.625 6.625 0 0 0-.024-1.358 5.512 5.512 0 0 0-.939-2.339 5.325 5.325 0 0 0-.95-1.02 8.097 8.097 0 0 1-.186-.152.692.692 0 0 1 .023-.208c.208-1.087.201-2.443-.017-3.503-.19-.924-.535-1.658-.98-2.082-.354-.338-.716-.482-1.15-.455-.996.059-1.8 1.205-2.116 3.01a6.805 6.805 0 0 0-.097.726c0 .036-.007.066-.015.066a.96.96 0 0 1-.149-.078A4.857 4.857 0 0 0 12 3.03c-.832 0-1.687.243-2.456.698a.958.958 0 0 1-.148.078c-.008 0-.015-.03-.015-.066a6.71 6.71 0 0 0-.097-.725C8.997 1.392 8.337.319 7.46.048a2.096 2.096 0 0 0-.585-.041Zm.293 1.402c.248.197.523.759.682 1.388.03.113.06.244.069.292.007.047.026.152.041.233.067.365.098.76.102 1.24l.002.475-.12.175-.118.178h-.278c-.324 0-.646.041-.954.124l-.238.06c-.033.007-.038-.003-.057-.144a8.438 8.438 0 0 1 .016-2.323c.124-.788.413-1.501.696-1.711.067-.05.079-.049.157.013zm9.825-.012c.17.126.358.46.498.888.28.854.36 2.028.212 3.145-.019.14-.024.151-.057.144l-.238-.06a3.693 3.693 0 0 0-.954-.124h-.278l-.119-.178-.119-.175.002-.474c.004-.669.066-1.19.214-1.772.157-.623.434-1.185.68-1.382.078-.062.09-.063.159-.012z"/></g><text x="1858.0" y="861.0" font-family="'Helvetica Neue','Segoe UI',Arial,sans-serif" font-size="15" font-weight="600" fill="#c7d4ec" text-anchor="start">Ollama</text><g transform="translate(1980.0,844.0) scale(0.9167)"><path fill="#c7d4ec" d="M21.678.521c-1.032-.92-2.28-.55-3.513.544a8.71 8.71 0 0 0-.547.535c-2.109 2.237-4.066 6.38-4.674 9.544.237.48.422 1.093.544 1.561a13.044 13.044 0 0 1 .164.703s-.019-.071-.096-.296l-.05-.146a1.689 1.689 0 0 0-.033-.08c-.138-.32-.518-.995-.686-1.289-.143.423-.27.818-.376 1.176.484.884.778 2.4.778 2.4s-.025-.099-.147-.442c-.107-.303-.644-1.244-.772-1.464-.217.804-.304 1.346-.226 1.478.152.256.296.698.422 1.186.286 1.1.485 2.44.485 2.44l.017.224a22.41 22.41 0 0 0 .056 2.748c.095 1.146.273 2.13.5 2.657l.155-.084c-.334-1.038-.47-2.399-.41-3.967.09-2.398.642-5.29 1.661-8.304 1.723-4.55 4.113-8.201 6.3-9.945-1.993 1.8-4.692 7.63-5.5 9.788-.904 2.416-1.545 4.684-1.931 6.857.666-2.037 2.821-2.912 2.821-2.912s1.057-1.304 2.292-3.166c-.74.169-1.955.458-2.362.629-.6.251-.762.337-.762.337s1.945-1.184 3.613-1.72C21.695 7.9 24.195 2.767 21.678.521m-18.573.543A1.842 1.842 0 0 0 1.27 2.9v16.608a1.84 1.84 0 0 0 1.835 1.834h9.418a22.953 22.953 0 0 1-.052-2.707c-.006-.062-.011-.141-.016-.2a27.01 27.01 0 0 0-.473-2.378c-.121-.47-.275-.898-.369-1.057-.116-.197-.098-.31-.097-.432 0-.12.015-.245.037-.386a9.98 9.98 0 0 1 .234-1.045l.217-.028c-.017-.035-.014-.065-.031-.097l-.041-.381a32.8 32.8 0 0 1 .382-1.194l.2-.019c-.008-.016-.01-.038-.018-.053l-.043-.316c.63-3.28 2.587-7.443 4.8-9.791.066-.069.133-.128.198-.194Z"/></g><text x="2008.0" y="861.0" font-family="'Helvetica Neue','Segoe UI',Arial,sans-serif" font-size="15" font-weight="600" fill="#c7d4ec" text-anchor="start">SQLite</text><g transform="translate(2100.0,844.0) scale(0.9167)"><path fill="#c7d4ec" d="M12 .0387C5.3729.0384.0003 5.3931 0 11.9988c-.001 6.6066 5.372 11.9628 12 11.9625 6.628.0003 12.001-5.3559 12-11.9625-.0003-6.6057-5.3729-11.9604-12-11.96m-.829 5.4153h7.55l-7.5805 5.3284h5.1828L5.279 18.5436q2.9466-6.5444 5.892-13.0896"/></g><text x="2128.0" y="861.0" font-family="'Helvetica Neue','Segoe UI',Arial,sans-serif" font-size="15" font-weight="600" fill="#c7d4ec" text-anchor="start">FastAPI</text><g transform="translate(2250.0,844.0) scale(0.9167)"><path fill="#c7d4ec" d="M14.25.18l.9.2.73.26.59.3.45.32.34.34.25.34.16.33.1.3.04.26.02.2-.01.13V8.5l-.05.63-.13.55-.21.46-.26.38-.3.31-.33.25-.35.19-.35.14-.33.1-.3.07-.26.04-.21.02H8.77l-.69.05-.59.14-.5.22-.41.27-.33.32-.27.35-.2.36-.15.37-.1.35-.07.32-.04.27-.02.21v3.06H3.17l-.21-.03-.28-.07-.32-.12-.35-.18-.36-.26-.36-.36-.35-.46-.32-.59-.28-.73-.21-.88-.14-1.05-.05-1.23.06-1.22.16-1.04.24-.87.32-.71.36-.57.4-.44.42-.33.42-.24.4-.16.36-.1.32-.05.24-.01h.16l.06.01h8.16v-.83H6.18l-.01-2.75-.02-.37.05-.34.11-.31.17-.28.25-.26.31-.23.38-.2.44-.18.51-.15.58-.12.64-.1.71-.06.77-.04.84-.02 1.27.05zm-6.3 1.98l-.23.33-.08.41.08.41.23.34.33.22.41.09.41-.09.33-.22.23-.34.08-.41-.08-.41-.23-.33-.33-.22-.41-.09-.41.09zm13.09 3.95l.28.06.32.12.35.18.36.27.36.35.35.47.32.59.28.73.21.88.14 1.04.05 1.23-.06 1.23-.16 1.04-.24.86-.32.71-.36.57-.4.45-.42.33-.42.24-.4.16-.36.09-.32.05-.24.02-.16-.01h-8.22v.82h5.84l.01 2.76.02.36-.05.34-.11.31-.17.29-.25.25-.31.24-.38.2-.44.17-.51.15-.58.13-.64.09-.71.07-.77.04-.84.01-1.27-.04-1.07-.14-.9-.2-.73-.25-.59-.3-.45-.33-.34-.34-.25-.34-.16-.33-.1-.3-.04-.25-.02-.2.01-.13v-5.34l.05-.64.13-.54.21-.46.26-.38.3-.32.33-.24.35-.2.35-.14.33-.1.3-.06.26-.04.21-.02.13-.01h5.84l.69-.05.59-.14.5-.21.41-.28.33-.32.27-.35.2-.36.15-.36.1-.35.07-.32.04-.28.02-.21V6.07h2.09l.14.01zm-6.47 14.25l-.23.33-.08.41.08.41.23.33.33.23.41.08.41-.08.33-.23.23-.33.08-.41-.08-.41-.23-.33-.33-.23-.41-.08-.41.08z"/></g><text x="2278.0" y="861.0" font-family="'Helvetica Neue','Segoe UI',Arial,sans-serif" font-size="15" font-weight="600" fill="#c7d4ec" text-anchor="start">Python</text><text x="70.0" y="946.0" font-family="'Helvetica Neue','Segoe UI',Arial,sans-serif" font-size="15" font-weight="500" fill="#64769a" text-anchor="start">Fully local on the Dell Pro Max with GB10  ·  four models resident ≈ 13.6 GB of a ≤70 GB budget  ·  272 unit tests + 8 live-model tests  ·  F-01…F-11 complete</text></svg>